# xmcd
#
# Track frame offsets:
#	150
#	13426
#	27764
#	40070
#	54837
#	71171
#	86516
#	102353
#	115155
#	126141
#	135271
#	152228
#
# Disc length: 2190 seconds
#
# Revision: 1
# Processed by: cddbd v1.5.2PL0 Copyright (c) Steve Scherf et al.
# Submitted via: audiograbber 1.83.01
#
DISCID=98088c0c
DTITLE=George Strait - Troubadour
DYEAR=2008
DGENRE=Country
TTITLE0=Troubadour
TTITLE1=It Was Me
TTITLE2=Brothers Of The Highway
TTITLE3=River Of Love
TTITLE4=House Of Cash
TTITLE5=I Saw God Today
TTITLE6=Give Me More Time
TTITLE7=When You're In Love
TTITLE8=Make Her Fall In Love With Me
TTITLE9=West Texas Town
TTITLE10=House With No Doors
TTITLE11=If Heartaches Were Horses
EXTD=
EXTT0=
EXTT1=
EXTT2=
EXTT3=
EXTT4=
EXTT5=
EXTT6=
EXTT7=
EXTT8=
EXTT9=
EXTT10=
EXTT11=
PLAYORDER=
